<svg xmlns="http://www.w3.org/2000/svg" xmlns:xlink="http://www.w3.org/1999/xlink" width="44.267" height="48" viewBox="0 0 44.267 48">
  <defs>
    <clipPath id="clip-path">
      <rect id="Rectangle_2527" data-name="Rectangle 2527" width="44.267" height="48" transform="translate(516.867 936)" fill="#202832"/>
    </clipPath>
  </defs>
  <g id="Group_3961" data-name="Group 3961" transform="translate(-516.867 -936)">
    <g id="Group_3960" data-name="Group 3960">
      <g id="Group_3959" data-name="Group 3959" clip-path="url(#clip-path)">
        <path id="Path_6381" data-name="Path 6381" d="M556.333,972.8V938.4a2.4,2.4,0,0,0-2.4-2.4h-33.6a2.4,2.4,0,0,0-2.4,2.4v5.332a2.4,2.4,0,0,0-.9,2.5l.9,3.718V981.6a2.4,2.4,0,0,0,2.4,2.4h33.6a2.4,2.4,0,0,0,2.4-2.4v-2.4h.8a4,4,0,0,0,4-4v-2.4Zm-36.8-34.4a.8.8,0,0,1,.8-.8h33.6a.8.8,0,0,1,.8.8v34.4H528.272l.1-.264-6.675-27.442h0a2.4,2.4,0,0,0-2.16-1.826Zm-.95,7.451a.8.8,0,0,1,1.555-.379l.378,1.555-1.555.378Zm2.311,2.731,5.8,23.862-.494,1.354-1.061-.976-5.8-23.862Zm3.439,25.668v.95a2.4,2.4,0,0,1-4.8,0V956.525l4.171,17.146Zm30.4,7.35a.8.8,0,0,1-.8.8h-33.6a.8.8,0,0,1-.8-.8v-3.2a3.982,3.982,0,0,0,2.4.8h32.8Zm4.8-6.4a2.4,2.4,0,0,1-2.4,2.4h-32a3.978,3.978,0,0,0,.771-1.906l.985.908.8-2.2h31.844Zm0,0" fill="#202832"/>
      </g>
    </g>
    <path id="Path_6382" data-name="Path 6382" d="M531.687,954.714l-.719.72,1.131,1.132,1.366-1.366h7.668a2.4,2.4,0,0,0,2.4-2.4V948a2.4,2.4,0,0,0-.954-1.914l.72-.72-1.131-1.132L540.8,945.6h-1.269v-.8a2.4,2.4,0,0,0-4.8,0v.8h-1.6a2.4,2.4,0,0,0-2.4,2.4v4.8a2.4,2.4,0,0,0,.954,1.914Zm9.726-7.462a.8.8,0,0,1,.52.748v.272l-.073.032a11.879,11.879,0,0,1-2.2.7Zm.52,2.746v2.8a.8.8,0,0,1-.8.8h-6.068l2.748-2.748a13.641,13.641,0,0,0,4.12-.854Zm-5.6-5.2a.8.8,0,0,1,1.6,0v.8h-1.6Zm-4,3.2a.8.8,0,0,1,.8-.8H539.2l-2.07,2.069a12,12,0,0,1-4.726-.965l-.073-.032Zm0,2a13.649,13.649,0,0,0,3.285.786l-2.764,2.764a.8.8,0,0,1-.521-.748Zm0,0" fill="#202832"/>
    <path id="Path_6383" data-name="Path 6383" d="M537.133,961.6a11.2,11.2,0,1,0-11.2-11.2,11.2,11.2,0,0,0,11.2,11.2Zm0-20.8a9.6,9.6,0,1,1-9.6,9.6,9.6,9.6,0,0,1,9.6-9.6Zm0,0" fill="#202832"/>
    <rect id="Rectangle_2528" data-name="Rectangle 2528" width="24" height="1.6" transform="translate(528.333 963.2)" fill="#007ce1"/>
    <rect id="Rectangle_2529" data-name="Rectangle 2529" width="24" height="1.6" transform="translate(528.333 966.4)" fill="#007ce1"/>
    <rect id="Rectangle_2530" data-name="Rectangle 2530" width="22.4" height="1.6" transform="translate(529.933 969.6)" fill="#007ce1"/>
  </g>
</svg>
