<svg xmlns="http://www.w3.org/2000/svg" width="46.469" height="48" viewBox="0 0 46.469 48">
  <g id="Group_3958" data-name="Group 3958" transform="translate(-557.899 -1047.524)">
    <g id="Group_3962" data-name="Group 3962">
      <path id="Path_6372" data-name="Path 6372" d="M566.7,1068.325h8a.8.8,0,1,0,0-1.6h-8a.8.8,0,1,0,0,1.6Zm0,0" fill="#202832"/>
      <path id="Path_6373" data-name="Path 6373" d="M587.5,1074.325a.8.8,0,0,0-.8-.8h-20a.8.8,0,1,0,0,1.6h20a.8.8,0,0,0,.8-.8Zm0,0" fill="#202832"/>
      <path id="Path_6374" data-name="Path 6374" d="M581.1,1080.723a.8.8,0,0,0-.8-.8H566.7a.8.8,0,0,0,0,1.6h13.6a.8.8,0,0,0,.8-.8Zm0,0" fill="#202832"/>
      <path id="Path_6375" data-name="Path 6375" d="M566.7,1086.325a.8.8,0,1,0,0,1.6h11.2a.8.8,0,1,0,0-1.6Zm0,0" fill="#202832"/>
      <path id="Path_6376" data-name="Path 6376" d="M559.5,1049.126h23.2v11.2h11.2v12h1.6v-13.133l-11.672-11.668H557.9v48h28v-1.6H559.5Zm24.8,1.128,8.469,8.469H584.3Zm0,0" fill="#202832"/>
      <path id="Path_6377" data-name="Path 6377" d="M567.364,1062.771l2.887,1.974a.551.551,0,0,0,.626,0l2.879-1.974a4.348,4.348,0,0,0,1.738-3.318v-3.994a.547.547,0,0,0-.3-.5l-4.4-2.162a.555.555,0,0,0-.49,0l-4.388,2.156a.548.548,0,0,0-.3.5v4a4.35,4.35,0,0,0,1.74,3.318Zm-.62-6.968,3.815-1.883,3.815,1.888v3.645a3.223,3.223,0,0,1-1.25,2.392l-2.571,1.759-2.561-1.758a3.225,3.225,0,0,1-1.248-2.393Zm0,0" fill="#202832"/>
      <path id="Path_6378" data-name="Path 6378" d="M569.612,1060.3a.564.564,0,0,0,.4.168h0a.562.562,0,0,0,.4-.166l2.228-2.229a.56.56,0,0,0-.792-.792l-1.83,1.829-.732-.738a.56.56,0,1,0-.8.789Zm0,0" fill="#202832"/>
    </g>
    <path id="Path_6379" data-name="Path 6379" d="M601.642,1078.112l-1.99,1.157a8.292,8.292,0,0,0-2.579-1.472v-2.313h-5.455v2.313a8.277,8.277,0,0,0-2.578,1.472l-1.991-1.157-2.726,4.743,2,1.152a6.94,6.94,0,0,0,0,2.954l-2,1.152,2.726,4.743,1.991-1.157a8.258,8.258,0,0,0,2.578,1.472v2.313h5.455v-2.313a8.273,8.273,0,0,0,2.579-1.472l1.99,1.157,2.726-4.743-2-1.152a6.9,6.9,0,0,0,0-2.954l2-1.152Zm-.933,7.372a9.4,9.4,0,0,1-.438,2.368l1.616.93-.911,1.584-1.6-.932-.495.505a7.214,7.214,0,0,1-3.623,1.865v1.862h-1.818V1091.8a7.223,7.223,0,0,1-3.624-1.865l-.495-.505-1.6.932-.91-1.584,1.616-.93a6.606,6.606,0,0,1,0-4.736l-1.616-.93.91-1.584,1.6.933.495-.506a7.226,7.226,0,0,1,3.624-1.865V1077.3h1.818v1.862a7.22,7.22,0,0,1,3.623,1.865l.495.506,1.6-.933.911,1.584-1.616.93a9.382,9.382,0,0,1,.438,2.368Zm0,0" fill="#007ce1"/>
    <path id="Path_6380" data-name="Path 6380" d="M594.346,1080.939a4.545,4.545,0,1,0,4.545,4.545,4.551,4.551,0,0,0-4.545-4.545Zm0,7.272a2.727,2.727,0,1,1,2.727-2.727,2.731,2.731,0,0,1-2.727,2.727Zm0,0" fill="#007ce1"/>
  </g>
</svg>
