<svg xmlns="http://www.w3.org/2000/svg" width="38.027" height="48.035" viewBox="0 0 38.027 48.035">
  <g id="Group_3980" data-name="Group 3980" transform="translate(-32.5 -489)">
    <path id="Path_6326" data-name="Path 6326" d="M84.505,497.505h-6a.945.945,0,0,1-1-1v-6h2v5h5Z" transform="translate(-14.978 -0.499)" fill="#2f3134"/>
    <path id="Path_6327" data-name="Path 6327" d="M62.522,537.035H33.5a.945.945,0,0,1-1-1V490a.945.945,0,0,1,1-1H63.522a.908.908,0,0,1,.7.3l6,6a.909.909,0,0,1,.3.7v33.024h-2V496.405l-5.4-5.4H34.5v44.032h28.02Z" fill="#2f3134"/>
    <path id="Path_6328" data-name="Path 6328" d="M55.508,538.016a11.008,11.008,0,1,1,11.008-11.008A10.976,10.976,0,0,1,55.508,538.016Zm0-20.014a9.007,9.007,0,1,0,9.006,9.007A8.969,8.969,0,0,0,55.508,518Z" transform="translate(-3.994 -8.987)" fill="#007ce1"/>
    <rect id="Rectangle_2479" data-name="Rectangle 2479" width="2.001" height="4.203" transform="translate(57.827 525.749) rotate(-45)" fill="#007ce1"/>
    <path id="Path_6329" data-name="Path 6329" d="M82.508,554.659h-3a.909.909,0,0,1-.7-.3L71.8,547.354a.967.967,0,0,1,0-1.4l4-4,1.4,1.4-3.3,3.3,6,6h1.6v-1.6l-4.7-4.7,1.4-1.4,5,5a.908.908,0,0,1,.3.7v3A.945.945,0,0,1,82.508,554.659Z" transform="translate(-12.981 -17.625)" fill="#007ce1"/>
    <path id="Path_6330" data-name="Path 6330" d="M51.5,530.006a.945.945,0,0,1-1-1A6.962,6.962,0,0,1,57.505,522a1,1,0,1,1,0,2,4.955,4.955,0,0,0-5,5A.945.945,0,0,1,51.5,530.006Z" transform="translate(-5.991 -10.984)" fill="#007ce1"/>
    <rect id="Rectangle_2480" data-name="Rectangle 2480" width="14.01" height="2.001" transform="translate(37.504 495.004)" fill="#2f3134"/>
    <rect id="Rectangle_2481" data-name="Rectangle 2481" width="9.006" height="2.001" transform="translate(37.504 499.007)" fill="#2f3134"/>
    <rect id="Rectangle_2482" data-name="Rectangle 2482" width="17.012" height="2.001" transform="translate(48.512 499.007)" fill="#2f3134"/>
    <rect id="Rectangle_2483" data-name="Rectangle 2483" width="20.014" height="2.001" transform="translate(37.504 503.01)" fill="#2f3134"/>
    <rect id="Rectangle_2484" data-name="Rectangle 2484" width="6.004" height="2.001" transform="translate(59.519 503.01)" fill="#2f3134"/>
    <rect id="Rectangle_2485" data-name="Rectangle 2485" width="2" height="2" transform="translate(46.014 531.018)" fill="#2f3134"/>
    <rect id="Rectangle_2486" data-name="Rectangle 2486" width="3" height="2" transform="translate(50.014 531.018)" fill="#2f3134"/>
    <rect id="Rectangle_2487" data-name="Rectangle 2487" width="2" height="2" transform="translate(55.014 531.018)" fill="#2f3134"/>
  </g>
</svg>
