<svg xmlns="http://www.w3.org/2000/svg" width="61" height="48" viewBox="0 0 61 48">
  <g id="Group_13" data-name="Group 13" transform="translate(-1489 -250)">
    <g id="Rectangle_28" data-name="Rectangle 28" transform="translate(1489 250)" fill="none" stroke="#000" stroke-width="2">
      <rect width="34" height="48" stroke="none"/>
      <rect x="1" y="1" width="32" height="46" fill="none"/>
    </g>
    <rect id="Rectangle_29" data-name="Rectangle 29" width="4" height="2" transform="translate(1495 259)"/>
    <rect id="Rectangle_30" data-name="Rectangle 30" width="14" height="2" transform="translate(1502 259)"/>
    <rect id="Rectangle_31" data-name="Rectangle 31" width="4" height="2" transform="translate(1495 266)"/>
    <rect id="Rectangle_32" data-name="Rectangle 32" width="14" height="2" transform="translate(1502 266)"/>
    <rect id="Rectangle_33" data-name="Rectangle 33" width="4" height="2" transform="translate(1495 273)"/>
    <rect id="Rectangle_34" data-name="Rectangle 34" width="14" height="2" transform="translate(1502 273)"/>
    <rect id="Rectangle_35" data-name="Rectangle 35" width="4" height="2" transform="translate(1495 280)"/>
    <rect id="Rectangle_36" data-name="Rectangle 36" width="14" height="2" transform="translate(1502 280)"/>
    <rect id="Rectangle_37" data-name="Rectangle 37" width="4" height="2" transform="translate(1495 287)"/>
    <rect id="Rectangle_38" data-name="Rectangle 38" width="14" height="2" transform="translate(1502 287)"/>
    <line id="Line_7" data-name="Line 7" x2="18" y2="14.5" transform="translate(1512.5 267)" fill="none" stroke="#007ce1" stroke-width="2"/>
    <g id="Rectangle_39" data-name="Rectangle 39" transform="translate(1530 276)" fill="none" stroke="#007ce1" stroke-width="2">
      <rect width="20" height="12" stroke="none"/>
      <rect x="1" y="1" width="18" height="10" fill="none"/>
    </g>
    <rect id="Rectangle_40" data-name="Rectangle 40" width="4" height="2" transform="translate(1535 281)" fill="#007ce1"/>
    <rect id="Rectangle_41" data-name="Rectangle 41" width="4" height="2" transform="translate(1542 281)" fill="#007ce1"/>
  </g>
</svg>
